<svg xmlns="http://www.w3.org/2000/svg" viewBox="0 0 405.62 227.96"><defs><style>.cls-1{fill:#d84127;}.cls-2{fill:#373734;}</style></defs><title>Motiv_Icon</title><g id="Layer_2" data-name="Layer 2"><g id="Layer_1-2" data-name="Layer 1"><path class="cls-1" d="M387.63,2.22A30.59,30.59,0,0,0,376.17,0a29.19,29.19,0,0,0-20.46,8.26l-1.23,1.23v.12L232.25,128.89V29.33a29.6,29.6,0,0,0-18-27.11A31,31,0,0,0,202.79,0a29.17,29.17,0,0,0-20.45,8.26L181,9.61,8.84,177.56a29.41,29.41,0,0,0,41.16,42L173.47,99.07V199.62a8.89,8.89,0,0,0,.12,1.72c0,.5.12.87.12,1.36s.13,1,.25,1.48.25,1,.37,1.35.25,1,.37,1.48.25.87.37,1.36a4.24,4.24,0,0,1,.49,1.35c.25.37.37.87.62,1.24s.37.86.62,1.35a11.11,11.11,0,0,1,.73,1.23c.25.37.5.87.74,1.24s.62.74.87,1.1a4.23,4.23,0,0,0,.86,1.24c.37.37.74.86,1.11,1.23a4,4,0,0,0,.74.74c0,.12,0,.12.12.12a7,7,0,0,0,1.36,1.36l.73.74c.62.49,1.24.86,1.85,1.35a20,20,0,0,1,1.73,1.11,11.08,11.08,0,0,1,1.23.74c.37.25.86.37,1.23.62a4.58,4.58,0,0,1,1.36.61c.49.13.86.25,1.23.37a6.35,6.35,0,0,0,1.6.62c.37.12.74.12,1.11.24s1.11.37,1.6.5,1,.12,1.48.12a6.46,6.46,0,0,0,1.48.25,21.4,21.4,0,0,0,2.83.12,24.34,24.34,0,0,0,3-.12c.37,0,.74-.13,1.11-.13.62-.12,1.11-.12,1.73-.24.37-.13.86-.25,1.23-.37l1.48-.37a6.67,6.67,0,0,0,1.35-.49,9.78,9.78,0,0,0,1.36-.5c.37-.12.86-.37,1.23-.49s.86-.49,1.36-.74a4.76,4.76,0,0,0,1.11-.62c.49-.24.86-.49,1.35-.73s.74-.62,1.11-.87.74-.61,1.11-.86a11.38,11.38,0,0,0,1.23-1.11c.25-.25.62-.49.86-.74L346.84,99.07v99.56a29.39,29.39,0,0,0,58.78,0V29.33A29.61,29.61,0,0,0,387.63,2.22Z"/><path class="cls-2" d="M267.31,0h46A3.76,3.76,0,0,1,316,6.4L266.48,54.91A3.76,3.76,0,0,1,260,52.26v-45A7.28,7.28,0,0,1,267.31,0Z"/></g></g></svg>