<svg xmlns="http://www.w3.org/2000/svg" width="116.247" height="45.891" viewBox="0 0 116.247 45.891">
  <g id="Layer_2" data-name="Layer 2" transform="translate(0.007)">
    <g id="Layer_1" data-name="Layer 1" transform="translate(-0.007)">
      <path id="Path_156" data-name="Path 156" d="M39.04,6.373a3.077,3.077,0,0,0-1.154-.223,2.941,2.941,0,0,0-2.06.831l-.124.124h0L23.393,19.117V9.1a2.978,2.978,0,0,0-1.812-2.73,3.127,3.127,0,0,0-1.154-.223,2.941,2.941,0,0,0-2.06.831l-.136.136L.9,24.031A2.975,2.975,0,1,0,5.04,28.3L17.449,16.164V26.29a.881.881,0,0,0,0,.174v.707a.447.447,0,0,1,0,.137.156.156,0,0,0,.062.124v.136l.074.124.074.124.087.112a.447.447,0,0,0,.087.124l.112.124.074.074h0l.136.137.074.074.186.137.174.112.124.074.124.062H19.1l.161.062h2.11l.136-.074.112-.062.136-.074.112-.087.112-.087.124-.112.087-.074L34.6,16.2V26.228a2.966,2.966,0,0,0,5.919,0V9.1a2.978,2.978,0,0,0-1.477-2.73Z" transform="translate(0.007 1.481)" fill="#d93e1a"/>
      <path id="Path_157" data-name="Path 157" d="M35.211,17.827A11.677,11.677,0,0,1,47.284,6,11.677,11.677,0,0,1,59.358,17.864a11.689,11.689,0,0,1-12.074,11.9A11.689,11.689,0,0,1,35.211,17.827Zm18.688,0a6.6,6.6,0,1,0-13.178-.881,6.639,6.639,0,1,0,13.178.881Z" transform="translate(8.49 1.444)" fill="#d93e1a"/>
      <path id="Path_158" data-name="Path 158" d="M71.881,27.3a2.32,2.32,0,0,1-1.241,3.065,13.017,13.017,0,0,1-4.442.807c-5.112,0-7.731-3.077-7.731-8.823V12.57H56.953a2.283,2.283,0,0,1-2.283-2.3h0a2.283,2.283,0,0,1,2.283-2.283h1.539V2.68A2.693,2.693,0,0,1,61.185,0h0a2.68,2.68,0,0,1,2.68,2.68V7.991h5.286a2.283,2.283,0,0,1,2.283,2.283h0a2.283,2.283,0,0,1-2.283,2.3H63.865V22.1c0,2.668.955,4.083,3.288,4.083a6.44,6.44,0,0,0,1.923-.3,2.308,2.308,0,0,1,2.8,1.415Z" transform="translate(13.179)" fill="#d93e1a"/>
      <path id="Path_159" data-name="Path 159" d="M70.452,2.95A2.718,2.718,0,0,1,74.262.245,2.643,2.643,0,0,1,75.85,2.727a2.7,2.7,0,0,1-5.4.223Zm0,24.9V10.718a2.73,2.73,0,0,1,2.73-2.73h0a2.73,2.73,0,0,1,2.73,2.73V27.855a2.73,2.73,0,0,1-2.73,2.73h0a2.73,2.73,0,0,1-2.792-2.73Z" transform="translate(16.965 0.003)" fill="#d93e1a"/>
      <path id="Path_160" data-name="Path 160" d="M97.506,10.2,90.06,27.126A3.115,3.115,0,0,1,87.206,29h0a3.09,3.09,0,0,1-2.854-1.874L77.043,10.237a2.718,2.718,0,0,1,2.482-3.8h0a2.718,2.718,0,0,1,2.482,1.725l5.274,13.426L92.493,8.153A2.68,2.68,0,0,1,94.974,6.44h0a2.68,2.68,0,0,1,2.531,3.76Z" transform="translate(18.514 1.551)" fill="#d93e1a"/>
      <circle id="Ellipse_11" data-name="Ellipse 11" cx="2.842" cy="2.842" r="2.842" transform="translate(52.933 16.454)" fill="#373734"/>
      <text id="by_Nji_Mar_Nji_Mrapsht" data-name="by Nji Mar Nji Mrapsht" transform="translate(0.009 42.891)" fill="#373734" font-size="11" font-family="SegoeUI, Segoe UI" letter-spacing="-0.06em"><tspan x="0" y="0">b</tspan><tspan y="0" letter-spacing="-0.04em">y Nji </tspan><tspan y="0" letter-spacing="-0.05em">M</tspan><tspan y="0" letter-spacing="-0.04em">a</tspan><tspan y="0" letter-spacing="-0.07em">r </tspan><tspan y="0" letter-spacing="-0.04em">Nji M</tspan><tspan y="0">r</tspan><tspan y="0" letter-spacing="-0.04em">aps</tspan><tspan y="0" letter-spacing="-0.05em">h</tspan><tspan y="0" letter-spacing="-0.04em">t</tspan></text>
      <path id="Path_161" data-name="Path 161" d="M21.83,6.15h4.641a.372.372,0,0,1,.261.645l-4.964,4.877a.385.385,0,0,1-.658-.261V6.882a.732.732,0,0,1,.72-.732Z" transform="translate(5.094 1.481)" fill="#373734"/>
      <path id="Path_162" data-name="Path 162" d="M83.583,6.44H87.9a.323.323,0,0,1,.3.447l-2.122,5.5a.36.36,0,0,1-.67,0l-2.122-5.5a.323.323,0,0,1,.3-.447Z" transform="translate(20.066 1.551)" fill="#373734"/>
    </g>
  </g>
</svg>
