<svg id="Monotone" xmlns="http://www.w3.org/2000/svg" xmlns:xlink="http://www.w3.org/1999/xlink" width="39.999" height="32" viewBox="0 0 39.999 32">
  <defs>
    <clipPath id="clip-path">
      <path id="Icon" d="M32,32a2.439,2.439,0,0,1-1.031-.228l-6.329-3.04-7.747,3.1A2.426,2.426,0,0,1,16,32a2.383,2.383,0,0,1-1.051-.239A1.556,1.556,0,0,1,14,30.4V23.626L.97,17.373A1.549,1.549,0,0,1,0,15.938a1.619,1.619,0,0,1,1.1-1.369l36-14.4A2.428,2.428,0,0,1,38,0a2.342,2.342,0,0,1,1.189.313,1.458,1.458,0,0,1,.783,1.549l-6,28.8a1.689,1.689,0,0,1-1.134,1.189A2.42,2.42,0,0,1,32,32ZM34.832,7.071,18.821,22.21,30.51,27.818ZM18,25.545v2.267l2.574-1.03L18,25.545ZM30.179,6.516,6.152,16.127l9.194,4.414Z" fill="#00ad9a"/>
    </clipPath>
  </defs>
  <g id="Group_152" data-name="Group 152">
    <path id="Icon-2" data-name="Icon" d="M32,32a2.439,2.439,0,0,1-1.031-.228l-6.329-3.04-7.747,3.1A2.426,2.426,0,0,1,16,32a2.383,2.383,0,0,1-1.051-.239A1.556,1.556,0,0,1,14,30.4V23.626L.97,17.373A1.549,1.549,0,0,1,0,15.938a1.619,1.619,0,0,1,1.1-1.369l36-14.4A2.428,2.428,0,0,1,38,0a2.342,2.342,0,0,1,1.189.313,1.458,1.458,0,0,1,.783,1.549l-6,28.8a1.689,1.689,0,0,1-1.134,1.189A2.42,2.42,0,0,1,32,32ZM34.832,7.071,18.821,22.21,30.51,27.818ZM18,25.545v2.267l2.574-1.03L18,25.545ZM30.179,6.516,6.152,16.127l9.194,4.414Z" fill="#00ad9a"/>
  </g>
</svg>
