<svg id="Monotone" xmlns="http://www.w3.org/2000/svg" xmlns:xlink="http://www.w3.org/1999/xlink" width="20" height="20" viewBox="0 0 20 20">
  <defs>
    <clipPath id="clip-path">
      <path id="Icon" d="M6,12a1,1,0,0,1-.707-.293l-5-5a1,1,0,0,1,0-1.414l5-5A1,1,0,0,1,6.707,1.707L2.414,6l4.293,4.293A1,1,0,0,1,6,12" transform="translate(6 4)" fill="#573843"/>
    </clipPath>
  </defs>
  <g id="Group_195" data-name="Group 195">
    <path id="Icon-2" data-name="Icon" d="M6,12a1,1,0,0,1-.707-.293l-5-5a1,1,0,0,1,0-1.414l5-5A1,1,0,0,1,6.707,1.707L2.414,6l4.293,4.293A1,1,0,0,1,6,12" transform="translate(6 4)" fill="#573843"/>
  </g>
</svg>
