<svg id="Polaris-icon_Major_Mono_Wearable" data-name="Polaris-icon/Major/Mono/Wearable" xmlns="http://www.w3.org/2000/svg" xmlns:xlink="http://www.w3.org/1999/xlink" width="15" height="15" viewBox="0 0 15 15">
  <defs>
    <clipPath id="clip-path">
      <path id="Icon" d="M13.183,15c-3.9,0-7.026-1.147-9.29-3.408C-.29,7.414-.005.981.009.709A.75.75,0,0,1,.758,0h4.5A.749.749,0,0,1,5.99.6l.744,3.743a.749.749,0,0,1-.4.815l-.963.482A5.725,5.725,0,0,0,9.336,9.629l.5-.983a.743.743,0,0,1,.667-.413.753.753,0,0,1,.149.015L14.4,9a.752.752,0,0,1,.6.734v4.491a.749.749,0,0,1-.709.748C13.921,14.99,13.548,15,13.183,15ZM1.509,1.5c.056,1.741.5,6.106,3.45,9.043A11.109,11.109,0,0,0,13.128,13.5c.123,0,.248,0,.372,0V10.344l-2.586-.516-.5.988a.758.758,0,0,1-.674.411.767.767,0,0,1-.118-.009A7.279,7.279,0,0,1,3.76,5.363a.746.746,0,0,1,.4-.793l.988-.493L4.64,1.5Z" transform="translate(0 0)" fill="#573843"/>
    </clipPath>
  </defs>
  <g id="Group_129" data-name="Group 129" transform="translate(0)">
    <path id="Icon-2" data-name="Icon" d="M13.183,15c-3.9,0-7.026-1.147-9.29-3.408C-.29,7.414-.005.981.009.709A.75.75,0,0,1,.758,0h4.5A.749.749,0,0,1,5.99.6l.744,3.743a.749.749,0,0,1-.4.815l-.963.482A5.725,5.725,0,0,0,9.336,9.629l.5-.983a.743.743,0,0,1,.667-.413.753.753,0,0,1,.149.015L14.4,9a.752.752,0,0,1,.6.734v4.491a.749.749,0,0,1-.709.748C13.921,14.99,13.548,15,13.183,15ZM1.509,1.5c.056,1.741.5,6.106,3.45,9.043A11.109,11.109,0,0,0,13.128,13.5c.123,0,.248,0,.372,0V10.344l-2.586-.516-.5.988a.758.758,0,0,1-.674.411.767.767,0,0,1-.118-.009A7.279,7.279,0,0,1,3.76,5.363a.746.746,0,0,1,.4-.793l.988-.493L4.64,1.5Z" transform="translate(0 0)" fill="#573843"/>
  </g>
</svg>
