<svg id="Monotone" xmlns="http://www.w3.org/2000/svg" xmlns:xlink="http://www.w3.org/1999/xlink" width="37.999" height="39.999" viewBox="0 0 37.999 39.999">
  <defs>
    <clipPath id="clip-path">
      <path id="Icon" d="M19,40a1.822,1.822,0,0,1-.474-.065A25.475,25.475,0,0,1,2.7,27.3C-.532,21-.871,13.416,1.727,5.355A1.913,1.913,0,0,1,3.526,4,35.07,35.07,0,0,0,18.143.212a1.837,1.837,0,0,1,1.713,0A35.067,35.067,0,0,0,34.471,4a1.907,1.907,0,0,1,1.8,1.355C38.87,13.417,38.532,21,35.3,27.3A25.476,25.476,0,0,1,19.471,39.934,1.814,1.814,0,0,1,19,40ZM19,4.222h0A39.325,39.325,0,0,1,4.936,7.939C3.12,14.417,3.5,20.453,6.048,25.392A21.639,21.639,0,0,0,19,35.929a21.634,21.634,0,0,0,12.95-10.537C34.5,20.451,34.88,14.416,33.062,7.939A39.335,39.335,0,0,1,19,4.222ZM17.1,26a1.835,1.835,0,0,1-1.342-.587l-3.8-4a2.079,2.079,0,0,1,0-2.828,1.832,1.832,0,0,1,2.688,0L17.1,21.169l6.26-6.586a1.835,1.835,0,0,1,2.688,0,2.073,2.073,0,0,1,0,2.83l-7.6,8A1.837,1.837,0,0,1,17.1,26Z" transform="translate(0 0)" fill="#00ad9a"/>
    </clipPath>
  </defs>
  <g id="Group_258" data-name="Group 258" transform="translate(0)">
    <path id="Icon-2" data-name="Icon" d="M19,40a1.822,1.822,0,0,1-.474-.065A25.475,25.475,0,0,1,2.7,27.3C-.532,21-.871,13.416,1.727,5.355A1.913,1.913,0,0,1,3.526,4,35.07,35.07,0,0,0,18.143.212a1.837,1.837,0,0,1,1.713,0A35.067,35.067,0,0,0,34.471,4a1.907,1.907,0,0,1,1.8,1.355C38.87,13.417,38.532,21,35.3,27.3A25.476,25.476,0,0,1,19.471,39.934,1.814,1.814,0,0,1,19,40ZM19,4.222h0A39.325,39.325,0,0,1,4.936,7.939C3.12,14.417,3.5,20.453,6.048,25.392A21.639,21.639,0,0,0,19,35.929a21.634,21.634,0,0,0,12.95-10.537C34.5,20.451,34.88,14.416,33.062,7.939A39.335,39.335,0,0,1,19,4.222ZM17.1,26a1.835,1.835,0,0,1-1.342-.587l-3.8-4a2.079,2.079,0,0,1,0-2.828,1.832,1.832,0,0,1,2.688,0L17.1,21.169l6.26-6.586a1.835,1.835,0,0,1,2.688,0,2.073,2.073,0,0,1,0,2.83l-7.6,8A1.837,1.837,0,0,1,17.1,26Z" transform="translate(0 0)" fill="#00ad9a"/>
  </g>
</svg>
