<svg id="Monotone" xmlns="http://www.w3.org/2000/svg" xmlns:xlink="http://www.w3.org/1999/xlink" width="40" height="28.8" viewBox="0 0 40 28.8">
  <defs>
    <clipPath id="clip-path">
      <path id="Icon" d="M30,28.8a6,6,0,0,1-5.63-3.6H15.631A6,6,0,0,1,10,28.8a6,6,0,0,1-5.63-3.6H2a1.911,1.911,0,0,1-2-1.8V1.8A1.91,1.91,0,0,1,2,0H22a1.91,1.91,0,0,1,2,1.8h8a2.068,2.068,0,0,1,1.715.873l6,9A1.665,1.665,0,0,1,40,12.6V23.4a1.911,1.911,0,0,1-2,1.8H35.633A6.008,6.008,0,0,1,30,28.8Zm0-7.2a1.811,1.811,0,1,0,2,1.8A1.91,1.91,0,0,0,30,21.6Zm-20,0a1.811,1.811,0,1,0,0,3.6,1.811,1.811,0,1,0,0-3.6ZM30,18a6.007,6.007,0,0,1,5.632,3.6H36V14.4H24v7.2h.369A6,6,0,0,1,30,18ZM10,18a6,6,0,0,1,5.63,3.6H20V3.6H4v18h.369A6,6,0,0,1,10,18ZM24,5.4v5.4H34.468l-3.6-5.4Z" transform="translate(0 0)" fill="#00ad9a"/>
    </clipPath>
  </defs>
  <g id="Group_154" data-name="Group 154" transform="translate(0 0)">
    <path id="Icon-2" data-name="Icon" d="M30,28.8a6,6,0,0,1-5.63-3.6H15.631A6,6,0,0,1,10,28.8a6,6,0,0,1-5.63-3.6H2a1.911,1.911,0,0,1-2-1.8V1.8A1.91,1.91,0,0,1,2,0H22a1.91,1.91,0,0,1,2,1.8h8a2.068,2.068,0,0,1,1.715.873l6,9A1.665,1.665,0,0,1,40,12.6V23.4a1.911,1.911,0,0,1-2,1.8H35.633A6.008,6.008,0,0,1,30,28.8Zm0-7.2a1.811,1.811,0,1,0,2,1.8A1.91,1.91,0,0,0,30,21.6Zm-20,0a1.811,1.811,0,1,0,0,3.6,1.811,1.811,0,1,0,0-3.6ZM30,18a6.007,6.007,0,0,1,5.632,3.6H36V14.4H24v7.2h.369A6,6,0,0,1,30,18ZM10,18a6,6,0,0,1,5.63,3.6H20V3.6H4v18h.369A6,6,0,0,1,10,18ZM24,5.4v5.4H34.468l-3.6-5.4Z" transform="translate(0 0)" fill="#00ad9a"/>
  </g>
</svg>
