<svg id="Monotone" xmlns="http://www.w3.org/2000/svg" width="11" height="13" viewBox="0 0 11 13">
  <path id="Shape" d="M8.75,13h-7.5a.626.626,0,0,1-.593-.445l-.625-1.95A.665.665,0,0,1,.184,9.94,7.335,7.335,0,0,1,5,7.8,7.38,7.38,0,0,1,9.817,9.94a.664.664,0,0,1,.15.665l-.625,1.95A.626.626,0,0,1,8.75,13ZM5,9.1a5.992,5.992,0,0,0-3.651,1.5L1.7,11.7H8.3l.351-1.1A6.01,6.01,0,0,0,5,9.1ZM5,6.5A3.193,3.193,0,0,1,1.875,3.25,3.193,3.193,0,0,1,5,0,3.193,3.193,0,0,1,8.125,3.25,3.193,3.193,0,0,1,5,6.5ZM5,1.3A1.916,1.916,0,0,0,3.125,3.25,1.916,1.916,0,0,0,5,5.2,1.916,1.916,0,0,0,6.875,3.25,1.916,1.916,0,0,0,5,1.3Z" transform="translate(0 0)" fill="#fff"/>
</svg>
